<svg width="372" height="372" viewBox="0 0 372 372" fill="none" xmlns="http://www.w3.org/2000/svg">
<circle cx="186" cy="186" r="183" fill="url(#paint0_linear)" stroke="#27241D" stroke-width="6"/>
<path d="M34.9999 82.5V79.5H33.8058L32.9383 80.3206L34.9999 82.5ZM52 63L52.973 60.1622C51.5933 59.6891 50.0734 60.2769 49.3709 61.555C48.6684 62.8332 48.987 64.4314 50.1258 65.3425L52 63ZM82.5932 145.294C82.7331 145.239 83.1511 145.082 83.4693 144.896C83.535 144.858 83.8641 144.671 84.1836 144.331C84.3391 144.165 84.7036 143.745 84.8908 143.08C85.1226 142.256 85.0058 141.303 84.442 140.515C83.9852 139.876 83.4128 139.598 83.1725 139.495C82.8932 139.375 82.6549 139.324 82.5308 139.3C82.28 139.253 82.0724 139.247 81.992 139.245C81.7044 139.238 81.3365 139.27 81.1687 139.283C80.9116 139.303 80.6113 139.328 80.2411 139.351C78.7864 139.445 76.2474 139.525 72.8518 139.11C66.0767 138.281 55.7418 135.46 43.7875 126.591L40.2125 131.409C53.0583 140.94 64.3899 144.119 72.1232 145.065C75.9817 145.537 78.9073 145.449 80.6245 145.339C81.0473 145.312 81.3967 145.284 81.638 145.265C81.9688 145.239 81.9483 145.245 81.849 145.243C81.8157 145.242 81.6452 145.239 81.4215 145.197C81.311 145.176 81.0837 145.127 80.8129 145.011C80.5811 144.912 80.0147 144.638 79.5613 144.004C79.0009 143.221 78.885 142.273 79.1151 141.455C79.3006 140.796 79.6609 140.382 79.8095 140.224C80.1153 139.898 80.4206 139.729 80.4519 139.71C80.6325 139.605 80.7461 139.574 80.4068 139.706L82.5932 145.294ZM43.7875 126.591C32.144 117.952 29.3753 108.74 29.8807 101.239C30.4044 93.4657 34.4737 87.1274 37.0615 84.6794L32.9383 80.3206C29.3595 83.706 24.5288 91.4176 23.8943 100.836C23.2413 110.527 27.056 121.648 40.2125 131.409L43.7875 126.591ZM34.9999 85.5C43.6546 85.5 53.0413 81.9044 58.105 77.1973C60.5752 74.901 62.7398 71.6217 61.9028 67.917C61.0684 64.2236 57.6133 61.7531 52.973 60.1622L51.027 65.8378C55.1367 67.2469 55.9316 68.7139 56.0503 69.2392C56.1664 69.7533 55.9873 70.974 54.0199 72.8027C50.2087 76.3456 42.3454 79.5 34.9999 79.5V85.5ZM84.4203 54.6871C85.5666 49.8149 84.9762 44.9344 84.1759 41.4C83.7705 39.6095 83.2978 38.1061 82.9236 37.043C82.736 36.5102 82.5721 36.0848 82.452 35.7856C82.3919 35.6359 82.3426 35.5175 82.3067 35.4328C82.2888 35.3904 82.2741 35.3564 82.2632 35.3311C82.2577 35.3185 82.2531 35.308 82.2495 35.2997C82.2476 35.2956 82.2461 35.292 82.2447 35.289C82.2441 35.2875 82.2434 35.2861 82.2429 35.2849C82.2426 35.2843 82.2423 35.2834 82.2421 35.2831C82.2418 35.2823 82.2414 35.2816 79.5 36.5C76.7586 37.7184 76.7583 37.7177 76.758 37.7171C76.7579 37.7169 76.7576 37.7163 76.7575 37.7159C76.7572 37.7153 76.7569 37.7147 76.7567 37.7143C76.7564 37.7134 76.7562 37.7131 76.7563 37.7134C76.7565 37.7138 76.7576 37.7164 76.7597 37.721C76.7637 37.7303 76.7713 37.7479 76.7821 37.7735C76.8039 37.8248 76.8386 37.9081 76.884 38.0211C76.9748 38.2472 77.1077 38.5913 77.2639 39.0352C77.5772 39.9252 77.9795 41.203 78.3241 42.725C79.0238 45.8156 79.4334 49.6851 78.5797 53.3129L84.4203 54.6871ZM52 63C50.1258 65.3425 50.1298 65.3457 50.1338 65.3489C50.1351 65.35 50.1392 65.3531 50.1419 65.3553C50.1473 65.3595 50.1527 65.3638 50.1582 65.3681C50.1692 65.3766 50.1804 65.3852 50.1918 65.3939C50.2146 65.4111 50.2383 65.4285 50.2627 65.446C50.3116 65.4809 50.3636 65.5162 50.419 65.5514C50.5298 65.6221 50.6532 65.6924 50.7901 65.7609C51.0642 65.898 51.3889 66.0256 51.7721 66.1336C52.5348 66.3486 53.5346 66.4873 54.8553 66.4685C57.4734 66.4311 61.5535 65.7705 67.9657 63.5904L66.0342 57.9097C59.9463 59.9796 56.5265 60.444 54.7696 60.4691C53.9028 60.4815 53.4964 60.3859 53.3998 60.3586C53.3533 60.3455 53.385 60.3501 53.4736 60.3944C53.5177 60.4165 53.5752 60.448 53.6433 60.4914C53.6773 60.5131 53.7138 60.5376 53.7524 60.5652C53.7717 60.579 53.7916 60.5936 53.8119 60.609C53.8221 60.6167 53.8323 60.6246 53.8427 60.6326C53.8479 60.6367 53.8531 60.6408 53.8584 60.6449C53.861 60.647 53.865 60.6501 53.8663 60.6512C53.8702 60.6543 53.8742 60.6575 52 63ZM67.9657 63.5904C73.714 61.6359 76.2852 62.0712 78.3425 61.9648C78.917 61.935 79.715 61.8545 80.5267 61.5011C81.4238 61.1105 82.1103 60.4913 82.6274 59.7326C83.4759 58.4877 83.9506 56.6831 84.4203 54.6871L78.5797 53.3129C78.3347 54.3542 78.1395 55.0889 77.965 55.6208C77.8794 55.8814 77.8083 56.0639 77.752 56.1897C77.6956 56.3159 77.6654 56.3593 77.6695 56.3534C77.71 56.2939 77.8692 56.1141 78.1315 55.9999C78.3085 55.9228 78.3643 55.9556 78.0325 55.9728C76.4648 56.0539 72.7859 55.6142 66.0342 57.9097L67.9657 63.5904Z" fill="#27241D"/>
<path d="M297 220.5C353 206 344.833 242.667 347.5 270L319.5 309.5L293.5 332.5L259 352.5L223 365L180 367.5L149.5 365L117.5 356.5L65 324L52.5 309.5L76 277C139.5 277 144.7 233.7 139.5 220.5C178.7 211.3 191 255.167 170 277C237 277 239.8 229.7 227 220.5C265.8 194.9 267.167 249 261.5 277C316 277 338 252 297 220.5Z" fill="#27241D"/>
<path d="M347.5 270L349.947 271.735L350.594 270.822L350.486 269.709L347.5 270ZM297 220.5L296.248 217.596C295.138 217.883 294.289 218.778 294.06 219.902C293.832 221.025 294.263 222.181 295.172 222.879L297 220.5ZM261.5 277L258.56 276.405L257.832 280H261.5V277ZM227 220.5L225.348 217.996C224.524 218.54 224.02 219.453 224.001 220.44C223.981 221.427 224.448 222.36 225.249 222.936L227 220.5ZM170 277L167.838 274.92L162.952 280L170 280L170 277ZM139.5 220.5L138.815 217.58C137.966 217.779 137.247 218.336 136.842 219.108C136.438 219.88 136.389 220.789 136.709 221.6L139.5 220.5ZM76 277V274H74.4671L73.569 275.242L76 277ZM52.5 309.5L50.069 307.742L48.6799 309.663L50.2278 311.459L52.5 309.5ZM65 324L62.7278 325.959L63.0289 326.308L63.4209 326.551L65 324ZM117.5 356.5L115.921 359.051L116.3 359.285L116.73 359.399L117.5 356.5ZM149.5 365L148.73 367.899L148.988 367.968L149.255 367.99L149.5 365ZM180 367.5L179.755 370.49L179.964 370.507L180.174 370.495L180 367.5ZM223 365L223.174 367.995L223.59 367.971L223.984 367.834L223 365ZM259 352.5L259.984 355.334L260.256 355.24L260.505 355.095L259 352.5ZM293.5 332.5L295.005 335.095L295.264 334.945L295.488 334.747L293.5 332.5ZM319.5 309.5L321.488 311.747L321.747 311.517L321.947 311.235L319.5 309.5ZM350.486 269.709C350.162 266.387 350 262.9 349.859 259.313C349.719 255.752 349.598 252.073 349.352 248.49C348.864 241.371 347.861 234.18 344.943 228.24C341.936 222.119 336.94 217.423 328.883 215.367C321.021 213.36 310.457 213.917 296.248 217.596L297.752 223.404C311.543 219.833 320.958 219.536 327.399 221.18C333.643 222.774 337.273 226.235 339.557 230.885C341.93 235.716 342.886 241.91 343.366 248.901C343.605 252.372 343.721 255.929 343.864 259.549C344.005 263.141 344.172 266.78 344.514 270.291L350.486 269.709ZM295.172 222.879C305.224 230.601 311.083 237.686 313.649 243.781C316.147 249.715 315.54 254.682 312.611 258.833C309.552 263.169 303.682 267 294.911 269.738C286.193 272.459 274.918 274 261.5 274V280C275.332 280 287.244 278.416 296.699 275.465C306.099 272.531 313.385 268.144 317.514 262.292C321.773 256.256 322.384 249.066 319.179 241.453C316.042 234.002 309.276 226.149 298.828 218.121L295.172 222.879ZM264.44 277.595C267.317 263.381 268.493 242.262 263.779 227.725C261.422 220.459 257.35 214.123 250.541 211.757C243.733 209.392 235.347 211.399 225.348 217.996L228.652 223.004C238.053 216.801 244.388 215.971 248.572 217.425C252.754 218.878 255.944 223.017 258.071 229.576C262.324 242.688 261.35 262.619 258.56 276.405L264.44 277.595ZM225.249 222.936C227.481 224.54 229.479 228.236 229.927 233.466C230.365 238.581 229.258 244.745 225.826 250.703C219.046 262.47 202.792 274 170 274L170 280C204.208 280 222.854 267.88 231.024 253.698C235.067 246.681 236.448 239.294 235.905 232.953C235.371 226.727 232.919 221.06 228.751 218.064L225.249 222.936ZM172.162 279.08C183.544 267.247 185.879 249.525 180.085 235.936C177.165 229.09 172.146 223.207 165.095 219.692C158.032 216.171 149.181 215.147 138.815 217.58L140.185 223.421C149.419 221.254 156.805 222.263 162.418 225.061C168.042 227.866 172.135 232.59 174.565 238.289C179.471 249.792 177.456 264.92 167.838 274.92L172.162 279.08ZM136.709 221.6C138.923 227.221 139.094 240.301 131.041 251.999C123.148 263.466 107.026 274 76 274V280C108.474 280 126.702 268.885 135.984 255.401C145.106 242.149 145.277 226.979 142.291 219.401L136.709 221.6ZM73.569 275.242L50.069 307.742L54.931 311.258L78.431 278.758L73.569 275.242ZM50.2278 311.459L62.7278 325.959L67.2722 322.041L54.7722 307.541L50.2278 311.459ZM63.4209 326.551L115.921 359.051L119.079 353.949L66.5791 321.449L63.4209 326.551ZM116.73 359.399L148.73 367.899L150.27 362.101L118.27 353.601L116.73 359.399ZM149.255 367.99L179.755 370.49L180.245 364.51L149.745 362.01L149.255 367.99ZM180.174 370.495L223.174 367.995L222.826 362.005L179.826 364.505L180.174 370.495ZM223.984 367.834L259.984 355.334L258.016 349.666L222.016 362.166L223.984 367.834ZM260.505 355.095L295.005 335.095L291.995 329.905L257.495 349.905L260.505 355.095ZM295.488 334.747L321.488 311.747L317.512 307.253L291.512 330.253L295.488 334.747ZM321.947 311.235L349.947 271.735L345.053 268.265L317.053 307.765L321.947 311.235Z" fill="#27241D"/>
<path d="M162 141.567L164.533 143.174C165.118 142.252 165.156 141.085 164.631 140.127C164.107 139.168 163.103 138.571 162.011 138.567L162 141.567ZM7.98895 144L161.989 144.567L162.011 138.567L8.01105 138L7.98895 144ZM159.467 139.96L51.9668 309.393L57.0332 312.607L164.533 143.174L159.467 139.96Z" fill="#27241D"/>
<path fill-rule="evenodd" clip-rule="evenodd" d="M161 85.5C161 93.3461 155.524 99.913 148.185 101.587C148.222 101.803 148.239 102.025 148.234 102.252L147.622 132.996H166.423C167.336 132.996 168.167 133.345 168.79 133.917C169.441 134.175 170.021 134.631 170.431 135.262L185.55 158.513C186.603 160.133 186.144 162.301 184.523 163.355C182.903 164.409 180.735 163.949 179.681 162.329L170.764 148.615L171.777 162.795C171.914 164.723 170.463 166.398 168.535 166.536C166.607 166.673 164.932 165.222 164.794 163.294L163.13 139.996H145.523C145.22 139.996 144.927 139.958 144.647 139.886C144.431 139.923 144.209 139.94 143.983 139.935C142.05 139.897 140.514 138.299 140.553 136.366L140.773 125.335L131.577 138.664C130.479 140.255 128.299 140.655 126.708 139.558C125.117 138.46 124.717 136.28 125.815 134.689L140.251 113.764C140.469 113.448 140.729 113.179 141.019 112.96L141.236 102.112C141.239 101.967 141.25 101.824 141.27 101.684C133.704 100.183 128 93.5074 128 85.5C128 76.3873 135.387 69 144.5 69C153.613 69 161 76.3873 161 85.5Z" fill="#27241D"/>
<path d="M2.5 202C2.33333 196.333 3.4 176.1 9 140.5L160 143.5C124.667 198.5 53.7 309.1 52.5 311.5C51.3 313.9 44.3333 302.833 41 297L21.5 266.5L15 252L9 225L2.5 202Z" fill="#27241D" stroke="#27241D"/>
<path d="M55.5 137L81 141.5H9L17 114.5L26 95.5L30.8544 88.4051L31.5 85.5L34.3687 83.2687L39 76.5L43 71.5L53.5 57.5L65 47.5L81 37.5V57.5L70 60.5L58 63V71.5L50.5 79.5L36 82L34.3687 83.2687L30.8544 88.4051L28.5 99V114.5L43 131L55.5 137Z" fill="#27241D"/>
<path d="M81 141.5L55.5 137L43 131L28.5 114.5V99L31.5 85.5L36 82L50.5 79.5L58 71.5V63L70 60.5L81 57.5V37.5L65 47.5L53.5 57.5L43 71.5L39 76.5L26 95.5L17 114.5L9 141.5H81Z" stroke="#27241D"/>
<defs>
<linearGradient id="paint0_linear" x1="186" y1="3" x2="186" y2="369" gradientUnits="userSpaceOnUse">
<stop stop-color="#3CE050"/>
<stop offset="0.791667" stop-color="#38BEC9"/>
</linearGradient>
</defs>
</svg>
