<svg width="208" height="208" viewBox="0 0 208 208" fill="none" xmlns="http://www.w3.org/2000/svg">
<circle cx="104" cy="104" r="100" fill="url(#paint0_linear)" stroke="#27241D" stroke-width="7"/>
<path d="M193 146L15 146L108 203C137.5 180 193.8 146 193 146Z" stroke="#27241D" stroke-width="7" stroke-linecap="round" stroke-linejoin="round"/>
<path d="M89 121C89.3333 126.333 83.5 138.9 57.5 146.5H143.5C135.333 143 119 133 119 121V85.5H89V121Z" fill="#27241D" stroke="#27241D"/>
<path fill-rule="evenodd" clip-rule="evenodd" d="M79.5 98C81.6573 98 83.7329 97.7125 85.6728 97.1818C87.9135 103.99 95.4937 109 104.5 109C113.625 109 121.287 103.857 123.413 96.9106C125.61 97.614 128 98 130.5 98C141.27 98 150 90.8366 150 82C150 80.5928 149.779 79.2281 149.363 77.9279C159.259 77.1584 167 70.321 167 62C167 54.123 160.063 47.5754 150.928 46.2464C151.622 44.6028 152 42.8376 152 41C152 32.1634 143.27 25 132.5 25C128.926 25 125.576 25.7891 122.695 27.1666C121.065 19.6816 113.091 14 103.5 14C93.9088 14 85.935 19.6816 84.3048 27.1666C81.4243 25.7891 78.0744 25 74.5 25C63.7304 25 55 32.1634 55 41C55 42.8376 55.3775 44.6028 56.0725 46.2464C46.9374 47.5754 40 54.123 40 62C40 70.8366 48.7304 78 59.5 78C59.8768 78 60.251 77.9912 60.6225 77.9739C60.2162 79.2603 60 80.6094 60 82C60 90.8366 68.7304 98 79.5 98Z" fill="#27241D"/>
<defs>
<linearGradient id="paint0_linear" x1="104" y1="4" x2="104" y2="204" gradientUnits="userSpaceOnUse">
<stop stop-color="#3CE050"/>
<stop offset="0.791667" stop-color="#38BEC9"/>
</linearGradient>
</defs>
</svg>
